<svg width="598" height="596" viewBox="0 0 598 596" fill="none" xmlns="http://www.w3.org/2000/svg">
<rect x="29" width="550" height="550" rx="275" fill="#E2DBF0"/>
<rect x="104" y="75" width="400" height="400" rx="200" fill="#C5B7E1"/>
<rect x="179" y="150" width="250" height="250" rx="125" fill="#6D4AB5"/>
<path d="M241.338 446.325C238.687 458.761 235.639 480.925 233.744 502.128C231.443 527.887 230.977 549.48 233.005 563.261C234.346 572.371 242.819 578.67 251.929 577.329C261.039 575.988 267.338 567.515 265.997 558.405C264.456 547.935 264.878 528.395 266.96 505.095C268.744 485.127 271.617 464.233 273.952 453.277C275.872 444.271 270.127 435.413 261.121 433.493C252.115 431.574 243.257 437.319 241.338 446.325Z" fill="#F5D0C3"/>
<path d="M308.77 469.474C311.075 480.615 313.353 497.182 314.636 513.099C316.126 531.57 316.194 547.703 314.655 558.475C313.353 567.591 319.687 576.037 328.803 577.339C337.919 578.641 346.365 572.307 347.668 563.191C349.625 549.49 349.547 531.143 347.876 510.419C346.486 493.189 344.023 475.27 341.426 462.717C339.56 453.7 330.738 447.902 321.72 449.768C312.702 451.633 306.905 460.456 308.77 469.474Z" fill="#F5D0C3"/>
<path d="M292.888 447.148L230.172 413.801C230.172 413.801 222.463 428.906 216.944 447.148C212.499 461.838 209.895 479.893 210.656 483.527C212.361 491.675 270.34 503.611 278.677 499.443C287.014 495.275 292.888 447.148 292.888 447.148Z" fill="#232526"/>
<path d="M292.509 474.054C328.925 474.054 358.446 457.087 358.446 436.159C358.446 415.23 328.925 398.264 292.509 398.264C256.093 398.264 226.572 415.23 226.572 436.159C226.572 457.087 256.093 474.054 292.509 474.054Z" fill="#232526"/>
<path d="M288.754 445.443L353.176 410.39C353.176 410.39 360.428 430.616 365.302 450.559C369.623 468.243 371.741 485.706 370.228 488.643C367.009 494.896 307.321 504.748 301.639 499.443C295.957 494.138 288.754 445.443 288.754 445.443Z" fill="#232526"/>
<path d="M345.926 572.391C347.745 571.026 348.768 553.064 348.768 548.517C332.852 555.717 320.915 549.843 315.231 547.57C314.284 553.254 313.905 561.212 313.905 567.275C315.8 572.77 343.652 574.096 345.926 572.391Z" fill="#EDF0F4"/>
<path d="M384.01 593.206C384.01 575.509 369.665 561.166 351.969 561.166H347.165H343.049C343.049 561.166 343.476 568.309 329.608 568.309C315.742 568.309 313.821 561.166 313.821 561.166H312.071C311.104 561.166 310.319 561.951 310.319 562.917V591.198C310.319 593.619 312.28 595.578 314.699 595.578H381.637C382.948 595.578 384.01 594.517 384.01 593.206Z" fill="#3B3F45"/>
<mask id="mask0_45_6" style="mask-type:alpha" maskUnits="userSpaceOnUse" x="310" y="561" width="75" height="35">
<path fill-rule="evenodd" clip-rule="evenodd" d="M384.01 593.206C384.01 575.509 369.665 561.166 351.969 561.166H347.165H337.953H328.742H319.53H310.319V591.198C310.319 593.619 312.28 595.578 314.699 595.578H381.637C382.948 595.578 384.01 594.517 384.01 593.206Z" fill="white"/>
</mask>
<g mask="url(#mask0_45_6)">
<path d="M375.463 573.865C380.988 570.742 378.822 576.93 383.786 579.557L394.299 599.709H310.634C308.59 596.787 301.204 581.645 307.084 579.557C317.884 575.725 336.916 588.977 344.801 588.538C352.686 588.102 375.256 591.383 373.931 584.377C372.397 576.275 370.426 576.711 375.463 573.865Z" fill="#555D65"/>
<path d="M342.118 577.802C344.733 578.514 346.841 578.42 348.035 577.51C351.112 575.142 349.142 571.53 348.306 570.117C349.81 571.849 351.305 573.588 352.471 575.483C354.31 578.442 355.09 581.694 353.85 583.774C351.625 587.533 346.279 585.798 342.872 584.286L311.252 570.257L342.118 577.802Z" fill="#7F8389"/>
</g>
<path d="M354.636 570.321C353.988 571.363 354.995 572.646 356.161 572.264L365.762 569.118L362.342 573.984C361.925 574.578 362.068 575.398 362.661 575.815C363.255 576.233 364.075 576.09 364.492 575.496L370.187 567.394C370.914 566.36 369.904 564.996 368.702 565.389L358.775 568.642L361.905 563.607C362.539 562.587 361.586 561.321 360.431 561.649L350.056 564.59C350.448 564.187 350.946 563.762 351.551 563.308C351.965 562.997 353.425 561.975 353.693 561.774C354.273 561.338 354.391 560.515 353.955 559.934C353.52 559.354 352.696 559.236 352.115 559.672C351.894 559.838 350.434 560.86 349.974 561.205C347.621 562.971 346.334 564.58 346.334 566.638C346.334 567.51 347.167 568.14 348.006 567.902L357.88 565.104L354.636 570.321Z" fill="#7F8389"/>
<path fill-rule="evenodd" clip-rule="evenodd" d="M357.68 560.308C356.064 561.385 353.989 562.033 352.247 562.033C351.42 562.033 350.809 561.885 350.372 561.581C349.965 561.304 349.704 560.887 349.554 560.309C349.422 559.807 349.371 559.195 349.369 558.309C349.368 557.992 349.371 557.77 349.384 557.075L349.384 557.068L349.386 556.963C349.396 556.398 349.4 556.062 349.4 555.687C349.4 551.794 351.946 548.897 355.314 548.897C356.952 548.897 358.287 549.581 359.211 550.838C360.097 552.043 360.57 553.739 360.57 555.687C360.57 557.481 359.5 559.099 357.68 560.308ZM352.011 557.132C351.999 557.797 351.996 558.01 351.997 558.301C351.998 558.791 352.017 559.149 352.051 559.4C352.109 559.403 352.175 559.405 352.247 559.405C353.462 559.405 355.032 558.915 356.224 558.12C357.373 557.357 357.942 556.496 357.942 555.687C357.942 554.264 357.62 553.111 357.094 552.395C356.662 551.807 356.11 551.525 355.314 551.525C353.479 551.525 352.028 553.175 352.028 555.687C352.028 556.082 352.024 556.43 352.013 557.011L352.011 557.125L352.011 557.132Z" fill="#7F8389"/>
<path fill-rule="evenodd" clip-rule="evenodd" d="M350.044 561.754L350.272 561.457L350.301 561.163C350.304 561.147 350.306 561.131 350.309 561.109L350.309 561.109C350.333 560.959 350.329 560.757 350.293 560.54C350.233 560.167 350.084 559.739 349.823 559.147C349.729 558.933 349.666 558.799 349.446 558.328L349.428 558.29C349.262 557.937 349.142 557.677 349.018 557.4C347.855 554.785 345.26 553.617 342.978 554.634C341.866 555.13 341.164 555.994 340.912 557.115C340.671 558.19 340.855 559.468 341.437 560.772C341.97 561.975 343.176 562.738 344.779 563.001C346.198 563.231 347.799 563.036 348.979 562.511C349.512 562.277 349.831 562.032 350.044 561.754ZM343.477 557.691C343.547 557.376 343.698 557.191 344.048 557.034C344.939 556.638 346.019 557.123 346.617 558.468C346.75 558.767 346.877 559.042 347.063 559.437L347.081 559.473C347.277 559.893 347.335 560.02 347.419 560.208L347.448 560.275C346.776 560.466 345.937 560.526 345.202 560.407C344.404 560.276 343.97 560.002 343.838 559.705C343.472 558.883 343.369 558.17 343.477 557.691Z" fill="#7F8389"/>
<path d="M234.543 572.391C232.724 571.026 231.701 553.064 231.701 548.517C247.617 555.717 259.554 549.843 265.238 547.57C266.185 553.254 266.564 561.212 266.564 567.275C264.67 572.77 236.817 574.096 234.543 572.391Z" fill="#EDF0F4"/>
<path d="M196.459 593.206C196.459 575.509 210.804 561.166 228.5 561.166H233.304H237.42C237.42 561.166 236.993 568.309 250.861 568.309C264.728 568.309 266.648 561.166 266.648 561.166H268.398C269.365 561.166 270.15 561.951 270.15 562.917V591.198C270.15 593.619 268.189 595.578 265.77 595.578H198.832C197.521 595.578 196.459 594.517 196.459 593.206Z" fill="#3B3F45"/>
<mask id="mask1_45_6" style="mask-type:alpha" maskUnits="userSpaceOnUse" x="196" y="561" width="75" height="35">
<path fill-rule="evenodd" clip-rule="evenodd" d="M196.459 593.206C196.459 575.509 210.804 561.166 228.5 561.166H233.304H242.516H251.727H260.939H270.15V591.198C270.15 593.619 268.189 595.578 265.77 595.578H198.832C197.521 595.578 196.459 594.517 196.459 593.206Z" fill="white"/>
</mask>
<g mask="url(#mask1_45_6)">
<path d="M205.006 573.865C199.481 570.742 201.647 576.93 196.683 579.557L186.17 599.709H269.835C271.879 596.787 279.265 581.645 273.385 579.557C262.585 575.725 243.553 588.977 235.668 588.538C227.783 588.102 205.213 591.383 206.539 584.377C208.072 576.275 210.043 576.711 205.006 573.865Z" fill="#555D65"/>
<path d="M238.351 577.802C235.736 578.514 233.628 578.42 232.434 577.51C229.357 575.142 231.327 571.53 232.163 570.117C230.659 571.849 229.164 573.588 227.998 575.483C226.159 578.442 225.379 581.694 226.619 583.774C228.844 587.533 234.19 585.798 237.597 584.286L269.217 570.257L238.351 577.802Z" fill="#7F8389"/>
</g>
<path d="M225.833 570.321C226.481 571.363 225.474 572.646 224.308 572.264L214.707 569.118L218.127 573.984C218.545 574.578 218.401 575.398 217.808 575.815C217.214 576.233 216.394 576.09 215.977 575.496L210.282 567.394C209.556 566.36 210.565 564.996 211.767 565.389L221.694 568.642L218.564 563.607C217.93 562.587 218.883 561.321 220.038 561.649L230.413 564.59C230.021 564.187 229.523 563.762 228.918 563.308C228.504 562.997 227.044 561.975 226.776 561.774C226.196 561.338 226.078 560.515 226.514 559.934C226.949 559.354 227.773 559.236 228.354 559.672C228.575 559.838 230.035 560.86 230.495 561.205C232.848 562.971 234.135 564.58 234.135 566.638C234.135 567.51 233.302 568.14 232.463 567.902L222.589 565.104L225.833 570.321Z" fill="#7F8389"/>
<path fill-rule="evenodd" clip-rule="evenodd" d="M222.789 560.308C224.405 561.385 226.48 562.033 228.222 562.033C229.049 562.033 229.66 561.885 230.097 561.581C230.504 561.304 230.765 560.887 230.915 560.309C231.047 559.807 231.098 559.195 231.1 558.309C231.101 557.992 231.098 557.77 231.086 557.075L231.085 557.068L231.083 556.963C231.073 556.398 231.069 556.062 231.069 555.687C231.069 551.794 228.523 548.897 225.156 548.897C223.517 548.897 222.182 549.581 221.258 550.838C220.372 552.043 219.899 553.739 219.899 555.687C219.899 557.481 220.969 559.099 222.789 560.308ZM228.458 557.132C228.47 557.797 228.473 558.01 228.472 558.301C228.471 558.791 228.452 559.149 228.418 559.4C228.36 559.403 228.294 559.405 228.222 559.405C227.007 559.405 225.438 558.915 224.245 558.12C223.096 557.357 222.527 556.496 222.527 555.687C222.527 554.264 222.849 553.111 223.375 552.395C223.807 551.807 224.359 551.525 225.156 551.525C226.99 551.525 228.441 553.175 228.441 555.687C228.441 556.082 228.445 556.43 228.456 557.011L228.458 557.125L228.458 557.132Z" fill="#7F8389"/>
<path fill-rule="evenodd" clip-rule="evenodd" d="M230.425 561.754L230.197 561.457L230.168 561.163C230.165 561.147 230.163 561.131 230.16 561.109L230.16 561.109C230.136 560.959 230.14 560.757 230.176 560.54C230.236 560.167 230.385 559.739 230.646 559.147C230.74 558.933 230.803 558.799 231.023 558.328L231.041 558.29C231.207 557.937 231.327 557.677 231.451 557.4C232.614 554.785 235.209 553.617 237.491 554.634C238.603 555.13 239.305 555.994 239.557 557.115C239.798 558.19 239.614 559.468 239.032 560.772C238.499 561.975 237.293 562.738 235.69 563.001C234.271 563.231 232.67 563.036 231.49 562.511C230.957 562.277 230.638 562.032 230.425 561.754ZM236.992 557.691C236.922 557.376 236.771 557.191 236.421 557.034C235.53 556.638 234.45 557.123 233.852 558.468C233.719 558.767 233.592 559.042 233.406 559.437L233.388 559.473C233.192 559.893 233.134 560.02 233.05 560.208L233.021 560.275C233.693 560.466 234.532 560.526 235.267 560.407C236.065 560.276 236.499 560.002 236.631 559.705C236.997 558.883 237.1 558.17 236.992 557.691Z" fill="#7F8389"/>
<path d="M222.84 292.4C217.18 301.056 208.552 320.354 202.917 338.701C199.222 350.73 196.681 362.473 195.594 373.615C194.265 387.228 195.116 399.713 198.669 410.846C201.85 420.815 212.511 426.317 222.48 423.135C232.449 419.954 237.951 409.293 234.77 399.324C231.141 387.956 232.871 370.245 239.142 349.827C241.695 341.515 244.865 333.196 248.245 325.636C250.834 319.845 253.366 314.959 254.556 313.138C260.283 304.379 257.825 292.637 249.067 286.91C240.309 281.184 228.566 283.642 222.84 292.4Z" fill="#F5D0C3"/>
<path d="M338.797 312.001C339.6 313.229 343.063 318.228 343.689 319.153C345.84 322.331 347.655 325.193 349.363 328.171C358.61 344.295 361.924 359.151 357.447 373.177C354.266 383.146 359.768 393.806 369.737 396.988C379.706 400.17 390.367 394.667 393.548 384.698C398.091 370.465 398.383 355.968 395.166 341.546C392.667 330.342 388.221 319.755 382.236 309.319C380.007 305.432 377.708 301.807 375.068 297.908C374.192 296.614 370.988 291.987 370.514 291.263C364.788 282.505 353.045 280.047 344.287 285.774C335.528 291.5 333.071 303.243 338.797 312.001Z" fill="#F5D0C3"/>
<path d="M257.077 274.727V286.853L251.961 306.937L250.445 329.674L235.477 346.158L224.677 291.969L227.519 276.432L235.477 270.179L241.919 274.727L247.224 271.695L257.077 274.727Z" fill="#4E5051"/>
<path d="M335.33 275.864V287.99L340.446 308.074L341.961 330.811L356.93 347.295L367.73 293.106L364.888 277.569L356.93 271.316L350.488 275.864L345.182 272.832L335.33 275.864Z" fill="#4E5051"/>
<path d="M241.285 289.841C243.22 278.492 253.011 270.228 264.523 270.126L300.267 269.806L333.828 272.655C344.524 273.564 353.289 281.483 355.023 292.076C358.83 315.32 364.795 356.313 364.795 384.932C364.795 426.959 373.089 430.978 360.248 436.485C347.407 441.991 244.674 441.216 230.648 432.679C216.621 424.142 225.343 415.248 225.343 397.816C225.343 385.02 235.75 322.295 241.285 289.841Z" fill="#595B5E"/>
<rect x="264.726" y="328.165" width="66.3159" height="53.4317" fill="#232426"/>
<path fill-rule="evenodd" clip-rule="evenodd" d="M327.632 322.859H267.758C263.154 322.859 259.421 326.592 259.421 331.196V378.565C259.421 383.169 263.154 386.901 267.758 386.901H327.632C332.236 386.901 335.969 383.169 335.969 378.565V331.196C335.969 326.592 332.236 322.859 327.632 322.859ZM264.726 331.196C264.726 329.522 266.084 328.165 267.758 328.165H327.632C329.306 328.165 330.663 329.522 330.663 331.196V378.565C330.663 380.239 329.306 381.596 327.632 381.596H267.758C266.084 381.596 264.726 380.239 264.726 378.565V331.196Z" fill="#454748"/>
<path d="M270.842 345.556C269.776 346.22 269.451 347.623 270.116 348.688C270.781 349.754 272.183 350.078 273.249 349.414L283.052 343.298C284.485 342.403 284.477 340.313 283.037 339.43L273.233 333.42C272.163 332.764 270.763 333.099 270.107 334.17C269.45 335.241 269.786 336.64 270.857 337.297L277.526 341.385L270.842 345.556Z" fill="white"/>
<path d="M284.55 352.79H296.271C297.527 352.79 298.545 351.772 298.545 350.516C298.545 349.261 297.527 348.243 296.271 348.243H284.55C283.295 348.243 282.277 349.261 282.277 350.516C282.277 351.772 283.295 352.79 284.55 352.79Z" fill="white"/>
<path d="M295.73 309.211C308.182 309.211 318.277 298.438 318.277 285.148C318.277 271.858 308.182 261.085 295.73 261.085C283.277 261.085 273.182 271.858 273.182 285.148C273.182 298.438 283.277 309.211 295.73 309.211Z" fill="#454748"/>
<rect x="281.534" y="258.059" width="29.1247" height="43.687" rx="9.60707" fill="#EBBAAA"/>
<rect x="281.519" y="361.423" width="118.394" height="83.7476" rx="8.5" transform="rotate(-7.5 281.519 361.423)" fill="#BCC4CF"/>
<rect x="285.687" y="364.075" width="118.394" height="83.7476" rx="7.25" transform="rotate(-7.5 285.687 364.075)" fill="#D3D8DF"/>
<path d="M357.245 393.724C356.46 388.057 359.628 387.49 359.759 387.38C357.621 384.995 354.778 384.95 353.78 385.042C351.375 385.113 349.329 387.022 348.123 387.18C346.921 387.339 344.881 386.21 342.918 386.504C340.337 386.883 338.142 388.658 337.112 391.151C335.038 396.171 337.948 402.817 341.066 406.254C342.589 407.938 344.391 409.816 346.387 409.479C348.306 409.148 348.882 407.877 351.217 407.57C353.552 407.263 354.37 408.428 356.409 408.117C358.48 407.805 359.554 405.783 360.578 403.756C361.766 401.413 362.111 399.359 362.132 399.25C362.084 399.234 357.781 397.501 357.241 393.724L357.245 393.724Z" fill="white"/>
<path d="M347.766 386.033C347.212 381.825 350.174 377.961 354.385 377.407C354.94 381.618 351.974 385.479 347.766 386.033Z" fill="white"/>
<path d="M346.265 405.981C345.085 415.219 351.619 423.665 360.857 424.844C371.454 426.197 380.797 421.687 387.225 413.407C391.748 407.581 394.755 400.09 396.593 391.367C399.705 376.601 399.319 358.313 395.661 343.454C393.435 334.411 384.3 328.884 375.256 331.11C366.213 333.336 360.687 342.472 362.913 351.515C365.37 361.498 365.648 374.656 363.592 384.413C362.96 387.408 362.167 389.777 361.416 391.323C353.725 392.038 347.284 398 346.265 405.981Z" fill="#F5D0C3"/>
<path d="M239.896 227.316C252.049 227.316 261.902 217.971 261.902 206.444C261.902 194.916 252.049 185.571 239.896 185.571C227.743 185.571 217.891 194.916 217.891 206.444C217.891 217.971 227.743 227.316 239.896 227.316Z" fill="#EBBAAA"/>
<path d="M354.339 228.934C366.492 228.934 376.344 219.589 376.344 208.062C376.344 196.534 366.492 187.189 354.339 187.189C342.185 187.189 332.333 196.534 332.333 208.062C332.333 219.589 342.185 228.934 354.339 228.934Z" fill="#EBBAAA"/>
<path d="M232.066 163.884C233.067 146.423 245.874 131.908 263.075 128.741L287.267 124.286C296.108 122.658 305.182 122.767 313.981 124.606L359.582 134.137L365.266 191.169L366.465 209.057C369.116 248.623 337.737 282.176 298.082 282.176C258.817 282.176 227.579 249.253 229.64 210.042L232.066 163.884Z" fill="#F4D4CA"/>
<path d="M274.986 244.836C284.308 251.436 305.769 251.303 318.64 245.074C320.053 244.391 320.645 242.691 319.961 241.278C319.277 239.865 317.578 239.274 316.165 239.958C305.013 245.353 285.723 245.473 278.27 240.196C276.989 239.29 275.215 239.593 274.308 240.874C273.401 242.155 273.705 243.929 274.986 244.836Z" fill="#C99584"/>
<path d="M257.725 183.39L279.554 184.83C282.06 184.996 284.226 183.098 284.391 180.592C284.557 178.086 282.659 175.921 280.153 175.755L258.323 174.315C255.817 174.15 253.652 176.047 253.486 178.553C253.321 181.059 255.219 183.225 257.725 183.39Z" fill="#272727"/>
<path d="M313.797 184.982L335.287 183.388C337.792 183.202 339.671 181.021 339.485 178.516C339.3 176.012 337.119 174.132 334.614 174.318L313.124 175.913C310.62 176.098 308.74 178.279 308.926 180.784C309.112 183.289 311.293 185.168 313.797 184.982Z" fill="#272727"/>
<path d="M323.997 138.305C349.765 146.263 353.804 147.59 355.828 157.632C359.116 173.942 367.617 169.373 368.523 151.379C360.796 98.8887 317.555 94.3473 308.081 99.6526C296.712 106.019 293.257 128.813 323.997 138.305Z" fill="#393838"/>
<path d="M367.562 159.905C367.562 155.701 362.412 153.669 359.542 156.742L358.443 157.918C357.278 159.165 356.789 160.899 357.131 162.57L363.317 192.817C363.459 193.512 364.07 194.011 364.779 194.011C365.581 194.011 366.239 193.378 366.27 192.577L367.562 159.905Z" fill="#393838"/>
<path d="M297.435 140.2C265.263 140.2 242.333 148.347 235.891 155.926C232.603 172.236 227.708 166.348 226.95 149.49C234.908 103.063 277.375 97 297.435 97C315.281 98.8947 329.606 140.2 297.435 140.2Z" fill="#272727"/>
<path d="M273.679 118.813C277.747 124.758 283.736 128.199 280.071 147.31L301.597 133.67C294.084 126.887 269.611 112.868 273.679 118.813Z" fill="#272727"/>
<path d="M256.898 123.905C255.862 137.225 255.786 152.417 255.786 152.417L276.638 138.265C276.638 138.265 265.797 135.56 256.898 123.905Z" fill="#272727"/>
<path d="M245.151 128.179C244.115 141.498 244.039 156.691 244.039 156.691L258.439 144.473C258.439 144.473 254.05 139.833 245.151 128.179Z" fill="#272727"/>
<path d="M274.33 120.495C273.294 133.814 273.218 149.006 273.218 149.006L294.07 134.855C294.07 134.855 283.229 132.149 274.33 120.495Z" fill="#272727"/>
<path d="M227.124 152.406C227.029 150.089 228.882 148.158 231.202 148.158C233.608 148.158 235.491 150.229 235.265 152.624L231.421 193.196C231.357 193.873 230.789 194.39 230.11 194.39C229.403 194.39 228.822 193.832 228.793 193.126L227.124 152.406Z" fill="#272727"/>
<path d="M287.185 200.263L304.617 200.642L304.724 195.717L287.292 195.338L287.185 200.263Z" fill="#101013"/>
<path fill-rule="evenodd" clip-rule="evenodd" d="M242.783 189.329C239.445 189.691 237.008 192.633 237.23 196.024L238.442 214.57C238.587 216.781 239.838 218.648 241.754 219.428C247.847 221.912 255.616 223.569 264.881 223.569C273.757 223.569 280.659 222.519 285.728 220.904C287.608 220.305 288.927 218.616 289.232 216.496L291.806 198.652C292.243 195.622 290.496 192.773 287.645 191.905C279.788 189.514 271.833 187.948 264.881 187.948C258.24 187.948 250.55 188.486 242.783 189.329ZM284.209 216.218C284.211 216.217 284.214 216.216 284.219 216.215L284.225 216.213C284.219 216.214 284.214 216.216 284.209 216.218ZM284.213 216.206C284.206 216.215 284.205 216.218 284.209 216.218C279.629 217.672 273.239 218.642 264.881 218.642C256.283 218.642 249.139 217.119 243.613 214.866C243.584 214.855 243.547 214.824 243.505 214.762C243.429 214.648 243.373 214.478 243.358 214.248L242.145 195.703C242.095 194.93 242.615 194.302 243.314 194.226C250.92 193.401 258.449 192.874 264.881 192.874C271.251 192.874 278.779 194.356 286.211 196.618C286.702 196.768 287.025 197.293 286.93 197.949L284.357 215.793C284.327 215.997 284.272 216.131 284.213 216.206Z" fill="#101013"/>
<path fill-rule="evenodd" clip-rule="evenodd" d="M326.649 187.948C333.29 187.948 340.981 188.486 348.746 189.329C352.085 189.691 354.522 192.633 354.3 196.024L353.088 214.57C352.943 216.781 351.691 218.648 349.776 219.428C343.683 221.912 335.914 223.569 326.649 223.569C317.773 223.569 310.871 222.519 305.801 220.904C303.921 220.305 302.603 218.616 302.297 216.496L299.724 198.652C299.287 195.621 301.034 192.773 303.885 191.905C311.741 189.514 319.697 187.948 326.649 187.948ZM307.321 216.218C307.32 216.218 307.317 216.217 307.313 216.215L307.309 216.214C307.313 216.215 307.317 216.216 307.321 216.218ZM307.317 216.207C307.324 216.215 307.325 216.218 307.321 216.218C311.901 217.673 318.291 218.642 326.649 218.642C335.247 218.642 342.391 217.119 347.917 214.866C347.946 214.855 347.983 214.824 348.025 214.762C348.101 214.648 348.157 214.477 348.172 214.248L349.385 195.703C349.435 194.93 348.915 194.302 348.215 194.226C340.611 193.401 333.08 192.874 326.649 192.874C320.279 192.874 312.751 194.356 305.319 196.618C304.828 196.768 304.505 197.293 304.6 197.949L307.173 215.793C307.203 215.997 307.258 216.131 307.317 216.207Z" fill="#101013"/>
<path d="M292.066 205.505C291.974 205.698 291.468 206.735 291.312 207.059C290.949 207.815 290.637 208.49 290.337 209.18C289.431 211.26 288.757 213.194 288.349 215.08C286.563 223.333 290.544 229.063 300.881 229.063V222.621C297.457 222.621 295.652 221.912 294.917 220.855C294.321 219.996 294.198 218.51 294.645 216.442C294.95 215.03 295.493 213.475 296.243 211.752C296.508 211.144 296.788 210.539 297.119 209.849C297.263 209.55 297.772 208.505 297.878 208.285L292.066 205.505Z" fill="#EBBAAA"/>
<path d="M261.85 209.169C266.35 209.169 268.594 209.346 271.153 210.114C273.559 210.835 276.094 209.47 276.816 207.065C277.537 204.659 276.172 202.124 273.767 201.403C270.101 200.303 267.202 200.074 261.85 200.074C259.338 200.074 257.302 202.11 257.302 204.621C257.302 207.133 259.338 209.169 261.85 209.169Z" fill="black"/>
<path d="M330.403 199.316C325.051 199.316 322.152 199.545 318.486 200.645C316.08 201.366 314.715 203.901 315.437 206.307C316.159 208.712 318.694 210.078 321.099 209.356C323.659 208.588 325.903 208.411 330.403 208.411C332.915 208.411 334.95 206.375 334.95 203.863C334.95 201.352 332.915 199.316 330.403 199.316Z" fill="black"/>
<g filter="url(#filter0_d_45_6)">
<rect x="4" y="199" width="147" height="92" rx="14" fill="white"/>
<path d="M31.692 236.888V232.928L43.464 216.08H49.332V232.496H52.5V236.888H49.332V242H44.292V236.888H31.692ZM44.616 221.48L37.236 232.496H44.616V221.48ZM55.7088 228.536C55.7088 224.384 56.4528 221.132 57.9408 218.78C59.4528 216.428 61.9488 215.252 65.4288 215.252C68.9088 215.252 71.3928 216.428 72.8808 218.78C74.3928 221.132 75.1488 224.384 75.1488 228.536C75.1488 232.712 74.3928 235.988 72.8808 238.364C71.3928 240.74 68.9088 241.928 65.4288 241.928C61.9488 241.928 59.4528 240.74 57.9408 238.364C56.4528 235.988 55.7088 232.712 55.7088 228.536ZM70.1808 228.536C70.1808 226.76 70.0608 225.272 69.8208 224.072C69.6048 222.848 69.1488 221.852 68.4528 221.084C67.7808 220.316 66.7728 219.932 65.4288 219.932C64.0848 219.932 63.0648 220.316 62.3688 221.084C61.6968 221.852 61.2408 222.848 61.0008 224.072C60.7848 225.272 60.6768 226.76 60.6768 228.536C60.6768 230.36 60.7848 231.896 61.0008 233.144C61.2168 234.368 61.6728 235.364 62.3688 236.132C63.0648 236.876 64.0848 237.248 65.4288 237.248C66.7728 237.248 67.7928 236.876 68.4888 236.132C69.1848 235.364 69.6408 234.368 69.8568 233.144C70.0728 231.896 70.1808 230.36 70.1808 228.536ZM78.9822 228.536C78.9822 224.384 79.7262 221.132 81.2142 218.78C82.7262 216.428 85.2222 215.252 88.7022 215.252C92.1822 215.252 94.6662 216.428 96.1542 218.78C97.6662 221.132 98.4222 224.384 98.4222 228.536C98.4222 232.712 97.6662 235.988 96.1542 238.364C94.6662 240.74 92.1822 241.928 88.7022 241.928C85.2222 241.928 82.7262 240.74 81.2142 238.364C79.7262 235.988 78.9822 232.712 78.9822 228.536ZM93.4542 228.536C93.4542 226.76 93.3342 225.272 93.0942 224.072C92.8782 222.848 92.4222 221.852 91.7262 221.084C91.0542 220.316 90.0462 219.932 88.7022 219.932C87.3582 219.932 86.3382 220.316 85.6422 221.084C84.9702 221.852 84.5142 222.848 84.2742 224.072C84.0582 225.272 83.9502 226.76 83.9502 228.536C83.9502 230.36 84.0582 231.896 84.2742 233.144C84.4902 234.368 84.9462 235.364 85.6422 236.132C86.3382 236.876 87.3582 237.248 88.7022 237.248C90.0462 237.248 91.0662 236.876 91.7622 236.132C92.4582 235.364 92.9142 234.368 93.1302 233.144C93.3462 231.896 93.4542 230.36 93.4542 228.536ZM121.66 231.38H114.856V238.364H110.104V231.38H103.3V226.988H110.104V220.004H114.856V226.988H121.66V231.38Z" fill="#6D4AB5"/>
<path d="M39.448 272.376L36.946 269.874C36.334 270.042 35.71 270.126 35.074 270.126C33.91 270.126 32.848 269.856 31.888 269.316C30.928 268.764 30.166 268.002 29.602 267.03C29.05 266.046 28.774 264.942 28.774 263.718C28.774 262.494 29.05 261.396 29.602 260.424C30.166 259.44 30.928 258.678 31.888 258.138C32.848 257.586 33.91 257.31 35.074 257.31C36.25 257.31 37.318 257.586 38.278 258.138C39.238 258.678 39.994 259.434 40.546 260.406C41.098 261.378 41.374 262.482 41.374 263.718C41.374 264.918 41.11 265.998 40.582 266.958C40.054 267.918 39.328 268.674 38.404 269.226L41.572 272.376H39.448ZM30.448 263.718C30.448 264.714 30.646 265.59 31.042 266.346C31.45 267.102 32.002 267.684 32.698 268.092C33.406 268.5 34.198 268.704 35.074 268.704C35.95 268.704 36.736 268.5 37.432 268.092C38.14 267.684 38.692 267.102 39.088 266.346C39.496 265.59 39.7 264.714 39.7 263.718C39.7 262.71 39.496 261.834 39.088 261.09C38.692 260.334 38.146 259.752 37.45 259.344C36.754 258.936 35.962 258.732 35.074 258.732C34.186 258.732 33.394 258.936 32.698 259.344C32.002 259.752 31.45 260.334 31.042 261.09C30.646 261.834 30.448 262.71 30.448 263.718ZM45.1735 257.454V265.392C45.1735 266.508 45.4435 267.336 45.9835 267.876C46.5355 268.416 47.2975 268.686 48.2695 268.686C49.2295 268.686 49.9795 268.416 50.5195 267.876C51.0715 267.336 51.3475 266.508 51.3475 265.392V257.454H52.9855V265.374C52.9855 266.418 52.7755 267.3 52.3555 268.02C51.9355 268.728 51.3655 269.256 50.6455 269.604C49.9375 269.952 49.1395 270.126 48.2515 270.126C47.3635 270.126 46.5595 269.952 45.8395 269.604C45.1315 269.256 44.5675 268.728 44.1475 268.02C43.7395 267.3 43.5355 266.418 43.5355 265.374V257.454H45.1735ZM57.356 258.786V262.98H61.928V264.33H57.356V268.65H62.468V270H55.718V257.436H62.468V258.786H57.356ZM68.9245 270.126C68.0965 270.126 67.3525 269.982 66.6925 269.694C66.0445 269.394 65.5345 268.986 65.1625 268.47C64.7905 267.942 64.5985 267.336 64.5865 266.652H66.3325C66.3925 267.24 66.6325 267.738 67.0525 268.146C67.4845 268.542 68.1085 268.74 68.9245 268.74C69.7045 268.74 70.3165 268.548 70.7605 268.164C71.2165 267.768 71.4445 267.264 71.4445 266.652C71.4445 266.172 71.3125 265.782 71.0485 265.482C70.7845 265.182 70.4545 264.954 70.0585 264.798C69.6625 264.642 69.1285 264.474 68.4565 264.294C67.6285 264.078 66.9625 263.862 66.4585 263.646C65.9665 263.43 65.5405 263.094 65.1805 262.638C64.8325 262.17 64.6585 261.546 64.6585 260.766C64.6585 260.082 64.8325 259.476 65.1805 258.948C65.5285 258.42 66.0145 258.012 66.6385 257.724C67.2745 257.436 68.0005 257.292 68.8165 257.292C69.9925 257.292 70.9525 257.586 71.6965 258.174C72.4525 258.762 72.8785 259.542 72.9745 260.514H71.1745C71.1145 260.034 70.8625 259.614 70.4185 259.254C69.9745 258.882 69.3865 258.696 68.6545 258.696C67.9705 258.696 67.4125 258.876 66.9805 259.236C66.5485 259.584 66.3325 260.076 66.3325 260.712C66.3325 261.168 66.4585 261.54 66.7105 261.828C66.9745 262.116 67.2925 262.338 67.6645 262.494C68.0485 262.638 68.5825 262.806 69.2665 262.998C70.0945 263.226 70.7605 263.454 71.2645 263.682C71.7685 263.898 72.2005 264.24 72.5605 264.708C72.9205 265.164 73.1005 265.788 73.1005 266.58C73.1005 267.192 72.9385 267.768 72.6145 268.308C72.2905 268.848 71.8105 269.286 71.1745 269.622C70.5385 269.958 69.7885 270.126 68.9245 270.126ZM83.233 257.454V258.786H79.813V270H78.175V258.786H74.737V257.454H83.233ZM86.8873 257.454V270H85.2493V257.454H86.8873ZM95.367 270.126C94.203 270.126 93.141 269.856 92.181 269.316C91.221 268.764 90.459 268.002 89.895 267.03C89.343 266.046 89.067 264.942 89.067 263.718C89.067 262.494 89.343 261.396 89.895 260.424C90.459 259.44 91.221 258.678 92.181 258.138C93.141 257.586 94.203 257.31 95.367 257.31C96.543 257.31 97.611 257.586 98.571 258.138C99.531 258.678 100.287 259.434 100.839 260.406C101.391 261.378 101.667 262.482 101.667 263.718C101.667 264.954 101.391 266.058 100.839 267.03C100.287 268.002 99.531 268.764 98.571 269.316C97.611 269.856 96.543 270.126 95.367 270.126ZM95.367 268.704C96.243 268.704 97.029 268.5 97.725 268.092C98.433 267.684 98.985 267.102 99.381 266.346C99.789 265.59 99.993 264.714 99.993 263.718C99.993 262.71 99.789 261.834 99.381 261.09C98.985 260.334 98.439 259.752 97.743 259.344C97.047 258.936 96.255 258.732 95.367 258.732C94.479 258.732 93.687 258.936 92.991 259.344C92.295 259.752 91.743 260.334 91.335 261.09C90.939 261.834 90.741 262.71 90.741 263.718C90.741 264.714 90.939 265.59 91.335 266.346C91.743 267.102 92.295 267.684 92.991 268.092C93.699 268.5 94.491 268.704 95.367 268.704ZM113.693 270H112.055L105.467 260.01V270H103.829V257.436H105.467L112.055 267.408V257.436H113.693V270ZM120.464 270.126C119.636 270.126 118.892 269.982 118.232 269.694C117.584 269.394 117.074 268.986 116.702 268.47C116.33 267.942 116.138 267.336 116.126 266.652H117.872C117.932 267.24 118.172 267.738 118.592 268.146C119.024 268.542 119.648 268.74 120.464 268.74C121.244 268.74 121.856 268.548 122.3 268.164C122.756 267.768 122.984 267.264 122.984 266.652C122.984 266.172 122.852 265.782 122.588 265.482C122.324 265.182 121.994 264.954 121.598 264.798C121.202 264.642 120.668 264.474 119.996 264.294C119.168 264.078 118.502 263.862 117.998 263.646C117.506 263.43 117.08 263.094 116.72 262.638C116.372 262.17 116.198 261.546 116.198 260.766C116.198 260.082 116.372 259.476 116.72 258.948C117.068 258.42 117.554 258.012 118.178 257.724C118.814 257.436 119.54 257.292 120.356 257.292C121.532 257.292 122.492 257.586 123.236 258.174C123.992 258.762 124.418 259.542 124.514 260.514H122.714C122.654 260.034 122.402 259.614 121.958 259.254C121.514 258.882 120.926 258.696 120.194 258.696C119.51 258.696 118.952 258.876 118.52 259.236C118.088 259.584 117.872 260.076 117.872 260.712C117.872 261.168 117.998 261.54 118.25 261.828C118.514 262.116 118.832 262.338 119.204 262.494C119.588 262.638 120.122 262.806 120.806 262.998C121.634 263.226 122.3 263.454 122.804 263.682C123.308 263.898 123.74 264.24 124.1 264.708C124.46 265.164 124.64 265.788 124.64 266.58C124.64 267.192 124.478 267.768 124.154 268.308C123.83 268.848 123.35 269.286 122.714 269.622C122.078 269.958 121.328 270.126 120.464 270.126Z" fill="#6D4AB5"/>
</g>
<g filter="url(#filter1_d_45_6)">
<rect x="447" y="332" width="147" height="92" rx="14" fill="white"/>
</g>
<path d="M503.296 353.4V348.756H511.972V375H506.788V353.4H503.296ZM534.591 353.112H522.927V359.268C523.431 358.644 524.151 358.14 525.087 357.756C526.023 357.348 527.019 357.144 528.075 357.144C529.995 357.144 531.567 357.564 532.791 358.404C534.015 359.244 534.903 360.324 535.455 361.644C536.007 362.94 536.283 364.332 536.283 365.82C536.283 368.58 535.491 370.8 533.907 372.48C532.347 374.16 530.115 375 527.211 375C524.475 375 522.291 374.316 520.659 372.948C519.027 371.58 518.103 369.792 517.887 367.584H522.783C522.999 368.544 523.479 369.312 524.223 369.888C524.991 370.464 525.963 370.752 527.139 370.752C528.555 370.752 529.623 370.308 530.343 369.42C531.063 368.532 531.423 367.356 531.423 365.892C531.423 364.404 531.051 363.276 530.307 362.508C529.587 361.716 528.519 361.32 527.103 361.32C526.095 361.32 525.255 361.572 524.583 362.076C523.911 362.58 523.431 363.252 523.143 364.092H518.319V348.684H534.591V353.112Z" fill="#6D4AB5"/>
<path d="M500.108 390.454V391.786H496.688V403H495.05V391.786H491.612V390.454H500.108ZM506.426 403.162C505.502 403.162 504.662 402.952 503.906 402.532C503.162 402.112 502.574 401.518 502.142 400.75C501.722 399.97 501.512 399.07 501.512 398.05C501.512 397.042 501.728 396.154 502.16 395.386C502.604 394.606 503.204 394.012 503.96 393.604C504.716 393.184 505.562 392.974 506.498 392.974C507.434 392.974 508.28 393.184 509.036 393.604C509.792 394.012 510.386 394.6 510.818 395.368C511.262 396.136 511.484 397.03 511.484 398.05C511.484 399.07 511.256 399.97 510.8 400.75C510.356 401.518 509.75 402.112 508.982 402.532C508.214 402.952 507.362 403.162 506.426 403.162ZM506.426 401.722C507.014 401.722 507.566 401.584 508.082 401.308C508.598 401.032 509.012 400.618 509.324 400.066C509.648 399.514 509.81 398.842 509.81 398.05C509.81 397.258 509.654 396.586 509.342 396.034C509.03 395.482 508.622 395.074 508.118 394.81C507.614 394.534 507.068 394.396 506.48 394.396C505.88 394.396 505.328 394.534 504.824 394.81C504.332 395.074 503.936 395.482 503.636 396.034C503.336 396.586 503.186 397.258 503.186 398.05C503.186 398.854 503.33 399.532 503.618 400.084C503.918 400.636 504.314 401.05 504.806 401.326C505.298 401.59 505.838 401.722 506.426 401.722ZM515.276 394.954C515.6 394.39 516.08 393.922 516.716 393.55C517.364 393.166 518.114 392.974 518.966 392.974C519.842 392.974 520.634 393.184 521.342 393.604C522.062 394.024 522.626 394.618 523.034 395.386C523.442 396.142 523.646 397.024 523.646 398.032C523.646 399.028 523.442 399.916 523.034 400.696C522.626 401.476 522.062 402.082 521.342 402.514C520.634 402.946 519.842 403.162 518.966 403.162C518.126 403.162 517.382 402.976 516.734 402.604C516.098 402.22 515.612 401.746 515.276 401.182V407.68H513.638V393.136H515.276V394.954ZM521.972 398.032C521.972 397.288 521.822 396.64 521.522 396.088C521.222 395.536 520.814 395.116 520.298 394.828C519.794 394.54 519.236 394.396 518.624 394.396C518.024 394.396 517.466 394.546 516.95 394.846C516.446 395.134 516.038 395.56 515.726 396.124C515.426 396.676 515.276 397.318 515.276 398.05C515.276 398.794 515.426 399.448 515.726 400.012C516.038 400.564 516.446 400.99 516.95 401.29C517.466 401.578 518.024 401.722 518.624 401.722C519.236 401.722 519.794 401.578 520.298 401.29C520.814 400.99 521.222 400.564 521.522 400.012C521.822 399.448 521.972 398.788 521.972 398.032ZM526.648 391.534C526.336 391.534 526.072 391.426 525.856 391.21C525.64 390.994 525.532 390.73 525.532 390.418C525.532 390.106 525.64 389.842 525.856 389.626C526.072 389.41 526.336 389.302 526.648 389.302C526.948 389.302 527.2 389.41 527.404 389.626C527.62 389.842 527.728 390.106 527.728 390.418C527.728 390.73 527.62 390.994 527.404 391.21C527.2 391.426 526.948 391.534 526.648 391.534ZM527.44 393.136V403H525.802V393.136H527.44ZM529.62 398.05C529.62 397.03 529.824 396.142 530.232 395.386C530.64 394.618 531.204 394.024 531.924 393.604C532.656 393.184 533.49 392.974 534.426 392.974C535.638 392.974 536.634 393.268 537.414 393.856C538.206 394.444 538.728 395.26 538.98 396.304H537.216C537.048 395.704 536.718 395.23 536.226 394.882C535.746 394.534 535.146 394.36 534.426 394.36C533.49 394.36 532.734 394.684 532.158 395.332C531.582 395.968 531.294 396.874 531.294 398.05C531.294 399.238 531.582 400.156 532.158 400.804C532.734 401.452 533.49 401.776 534.426 401.776C535.146 401.776 535.746 401.608 536.226 401.272C536.706 400.936 537.036 400.456 537.216 399.832H538.98C538.716 400.84 538.188 401.65 537.396 402.262C536.604 402.862 535.614 403.162 534.426 403.162C533.49 403.162 532.656 402.952 531.924 402.532C531.204 402.112 530.64 401.518 530.232 400.75C529.824 399.982 529.62 399.082 529.62 398.05ZM544.657 403.162C543.901 403.162 543.223 403.036 542.623 402.784C542.023 402.52 541.549 402.16 541.201 401.704C540.853 401.236 540.661 400.702 540.625 400.102H542.317C542.365 400.594 542.593 400.996 543.001 401.308C543.421 401.62 543.967 401.776 544.639 401.776C545.263 401.776 545.755 401.638 546.115 401.362C546.475 401.086 546.655 400.738 546.655 400.318C546.655 399.886 546.463 399.568 546.079 399.364C545.695 399.148 545.101 398.938 544.297 398.734C543.565 398.542 542.965 398.35 542.497 398.158C542.041 397.954 541.645 397.66 541.309 397.276C540.985 396.88 540.823 396.364 540.823 395.728C540.823 395.224 540.973 394.762 541.273 394.342C541.573 393.922 541.999 393.592 542.551 393.352C543.103 393.1 543.733 392.974 544.441 392.974C545.533 392.974 546.415 393.25 547.087 393.802C547.759 394.354 548.119 395.11 548.167 396.07H546.529C546.493 395.554 546.283 395.14 545.899 394.828C545.527 394.516 545.023 394.36 544.387 394.36C543.799 394.36 543.331 394.486 542.983 394.738C542.635 394.99 542.461 395.32 542.461 395.728C542.461 396.052 542.563 396.322 542.767 396.538C542.983 396.742 543.247 396.91 543.559 397.042C543.883 397.162 544.327 397.3 544.891 397.456C545.599 397.648 546.175 397.84 546.619 398.032C547.063 398.212 547.441 398.488 547.753 398.86C548.077 399.232 548.245 399.718 548.257 400.318C548.257 400.858 548.107 401.344 547.807 401.776C547.507 402.208 547.081 402.55 546.529 402.802C545.989 403.042 545.365 403.162 544.657 403.162Z" fill="#6D4AB5"/>
<g filter="url(#filter2_d_45_6)">
<rect x="415" y="31" width="147" height="92" rx="14" fill="white"/>
</g>
<path d="M479.033 94.6333L461.4 77L479.033 59.3667L473.667 54L450.667 77L473.667 100L479.033 94.6333ZM498.967 94.6333L516.6 77L498.967 59.3667L504.333 54L527.333 77L504.333 100L498.967 94.6333Z" fill="#6D4AB5"/>
<defs>
<filter id="filter0_d_45_6" x="0" y="199" width="155" height="106" filterUnits="userSpaceOnUse" color-interpolation-filters="sRGB">
<feFlood flood-opacity="0" result="BackgroundImageFix"/>
<feColorMatrix in="SourceAlpha" type="matrix" values="0 0 0 0 0 0 0 0 0 0 0 0 0 0 0 0 0 0 127 0" result="hardAlpha"/>
<feOffset dy="10"/>
<feGaussianBlur stdDeviation="2"/>
<feComposite in2="hardAlpha" operator="out"/>
<feColorMatrix type="matrix" values="0 0 0 0 0.670588 0 0 0 0 0.666667 0 0 0 0 0.666667 0 0 0 0.25 0"/>
<feBlend mode="normal" in2="BackgroundImageFix" result="effect1_dropShadow_45_6"/>
<feBlend mode="normal" in="SourceGraphic" in2="effect1_dropShadow_45_6" result="shape"/>
</filter>
<filter id="filter1_d_45_6" x="443" y="332" width="155" height="106" filterUnits="userSpaceOnUse" color-interpolation-filters="sRGB">
<feFlood flood-opacity="0" result="BackgroundImageFix"/>
<feColorMatrix in="SourceAlpha" type="matrix" values="0 0 0 0 0 0 0 0 0 0 0 0 0 0 0 0 0 0 127 0" result="hardAlpha"/>
<feOffset dy="10"/>
<feGaussianBlur stdDeviation="2"/>
<feComposite in2="hardAlpha" operator="out"/>
<feColorMatrix type="matrix" values="0 0 0 0 0.670588 0 0 0 0 0.666667 0 0 0 0 0.666667 0 0 0 0.25 0"/>
<feBlend mode="normal" in2="BackgroundImageFix" result="effect1_dropShadow_45_6"/>
<feBlend mode="normal" in="SourceGraphic" in2="effect1_dropShadow_45_6" result="shape"/>
</filter>
<filter id="filter2_d_45_6" x="411" y="31" width="155" height="106" filterUnits="userSpaceOnUse" color-interpolation-filters="sRGB">
<feFlood flood-opacity="0" result="BackgroundImageFix"/>
<feColorMatrix in="SourceAlpha" type="matrix" values="0 0 0 0 0 0 0 0 0 0 0 0 0 0 0 0 0 0 127 0" result="hardAlpha"/>
<feOffset dy="10"/>
<feGaussianBlur stdDeviation="2"/>
<feComposite in2="hardAlpha" operator="out"/>
<feColorMatrix type="matrix" values="0 0 0 0 0.670588 0 0 0 0 0.666667 0 0 0 0 0.666667 0 0 0 0.25 0"/>
<feBlend mode="normal" in2="BackgroundImageFix" result="effect1_dropShadow_45_6"/>
<feBlend mode="normal" in="SourceGraphic" in2="effect1_dropShadow_45_6" result="shape"/>
</filter>
</defs>
</svg>
